# xmcd
#
# Track frame offsets:
#	182
#	16145
#	28307
#	42657
#	52770
#	63795
#	88257
#	101357
#	114720
#	131857
#	153407
#	170107
#	184445
#	199307
#	214382
#	224195
#	236657
#	252032
#
# Disc length: 3525 seconds
#
# Revision: 1
# Processed by: cddbd v1.5.2PL0 Copyright (c) Steve Scherf et al.
# Submitted via: audiograbber 1.82.02
#
DISCID=170dc312
DTITLE=Various Artist - A Swag Of Aussie Comedy
DYEAR=1997
DGENRE=Country
TTITLE0=Leon Lowes - The Day I Rode The Emu
TTITLE1=Terry Gordon - Click Go The Gears
TTITLE2=Glenn Jones - King Sized Didgeridoo
TTITLE3=Johnny Ashcroft - They're A Weired Mob
TTITLE4=Jim Kiley - Flies
TTITLE5=Glenn Jones - Old Tiger
TTITLE6=Reg Poole - Old Bluey's Hat
TTITLE7=Terry Gordon - I'm Allergic To To Yakka
TTITLE8=Steve Sparrow - Who's Skinning This Cat
TTITLE9=Leon Lowes - Henry The Heavy Kangaroo
TTITLE10=Glenn Jones - Garage Sale
TTITLE11=Gordon Parsons - Joe The Crow
TTITLE12=Glenn Jones - Doreen
TTITLE13=Gordon Parsons - Why Do I Gamble'
TTITLE14=Leon Lowes - The New Bank Manager
TTITLE15=Reg Poole - The Long Load
TTITLE16=The Bar Stewards - Makin' A Quid
TTITLE17=Gordon Parsons - Half A Dozen Stubbies In The Fridge
EXTD=
EXTT0=
EXTT1=
EXTT2=
EXTT3=
EXTT4=
EXTT5=
EXTT6=
EXTT7=
EXTT8=
EXTT9=
EXTT10=
EXTT11=
EXTT12=
EXTT13=
EXTT14=
EXTT15=
EXTT16=
EXTT17=
PLAYORDER=
